<?xml version="1.0" standalone="no"?>
<!DOCTYPE svg PUBLIC "-//W3C//DTD SVG 20010904//EN"
 "http://www.w3.org/TR/2001/REC-SVG-20010904/DTD/svg10.dtd">
<svg version="1.0" xmlns="http://www.w3.org/2000/svg"
 width="1024.000000pt" height="1024.000000pt" viewBox="0 0 1024.000000 1024.000000"
 preserveAspectRatio="xMidYMid meet">
<metadata>
Created by potrace 1.14, written by Peter Selinger 2001-2017
</metadata>
<g transform="translate(0.000000,1024.000000) scale(0.100000,-0.100000)"
fill="#000000" stroke="none">
<path d="M4497 7474 c-1 -1 -46 -4 -101 -8 -54 -3 -101 -8 -105 -10 -3 -2 -33
-7 -66 -11 -78 -8 -278 -57 -396 -96 -139 -46 -394 -174 -644 -323 -136 -81
-147 -88 -238 -148 -49 -32 -92 -58 -97 -58 -5 0 -10 -3 -12 -8 -1 -4 -34 -29
-73 -56 -72 -51 -162 -121 -180 -141 -22 -24 -130 -107 -169 -130 -42 -25
-145 -53 -183 -51 -12 0 -61 40 -111 88 -153 149 -286 236 -384 253 -18 3 -46
8 -63 11 -31 6 -221 6 -310 0 -27 -2 -97 -7 -155 -10 -208 -13 -262 -26 -338
-84 -54 -41 -60 -48 -108 -119 -80 -121 -147 -355 -170 -588 -3 -33 -7 -66
-10 -73 -25 -79 -24 -929 1 -1137 4 -30 15 -143 20 -200 1 -17 5 -44 8 -60 4
-17 9 -50 12 -75 5 -42 19 -121 30 -180 3 -14 7 -38 10 -55 4 -16 13 -59 22
-94 8 -36 17 -74 19 -85 7 -39 66 -222 94 -292 103 -257 171 -325 350 -351 71
-10 422 -10 525 0 286 29 356 55 490 179 87 81 93 83 130 58 6 -4 37 -17 70
-30 87 -34 201 -92 318 -162 56 -33 116 -68 133 -78 17 -10 66 -40 110 -67
165 -103 528 -306 686 -381 286 -139 470 -198 679 -218 125 -12 533 -5 628 11
13 2 39 -2 57 -10 19 -8 34 -12 34 -10 0 2 24 -4 53 -14 204 -70 414 -93 545
-58 192 51 346 181 404 342 18 48 28 191 15 212 -3 5 -3 14 1 20 5 8 24 6 67
-9 67 -23 178 -31 248 -17 240 44 449 247 516 501 29 108 23 276 -13 377 -14
41 -26 75 -26 76 0 0 10 1 23 1 119 2 284 70 382 157 58 51 131 155 160 227
28 72 42 150 43 252 1 154 -32 270 -119 411 -17 27 -29 51 -27 52 2 2 401 5
888 8 487 3 919 7 960 11 231 17 335 31 484 65 79 19 200 69 264 110 163 106
230 214 237 383 6 142 -45 268 -155 379 -60 60 -160 122 -218 134 -9 2 -51 13
-92 24 -41 11 -88 23 -105 26 -123 22 -206 35 -242 40 -24 3 -62 7 -85 11 -24
3 -63 7 -88 10 -25 2 -65 6 -90 9 -134 14 -205 19 -552 40 -215 13 -268 16
-343 20 -44 3 -116 7 -160 10 -234 13 -510 32 -565 40 -14 2 -56 6 -95 10 -38
3 -86 8 -105 10 -19 3 -51 7 -70 9 -19 3 -57 7 -85 11 -27 3 -75 10 -105 15
-30 6 -71 12 -90 14 -20 3 -47 7 -60 10 -26 7 -45 9 -140 21 -51 6 -59 10
-110 66 -330 362 -524 497 -808 564 -37 9 -85 20 -107 26 -22 5 -49 11 -60 14
-108 21 -231 49 -316 71 -57 14 -115 28 -129 30 -14 3 -33 7 -42 10 -18 5 -30
8 -128 29 -49 10 -70 15 -87 19 -55 12 -374 29 -386 20z m248 -293 c359 -54
933 -205 1105 -291 19 -10 37 -18 40 -17 15 1 173 -110 235 -164 252 -224 735
-990 735 -1168 0 -62 -47 -132 -112 -167 -39 -20 -144 -40 -208 -39 -272 6
-479 131 -691 416 -44 59 -91 115 -105 124 -25 16 -159 68 -397 152 -112 39
-130 43 -140 30 -72 -91 -250 -275 -327 -337 -24 -19 -48 -40 -54 -45 -18 -18
-138 -108 -188 -142 -60 -41 -148 -101 -168 -113 -8 -5 -31 -20 -50 -33 -149
-98 -400 -185 -618 -212 -153 -19 -407 -20 -537 -1 -118 18 -193 18 -230 1
-72 -35 -84 -122 -25 -183 33 -35 64 -53 132 -76 140 -47 281 -48 613 -5 119
15 140 19 255 39 200 37 210 40 420 145 106 53 251 128 349 181 31 17 37 12
47 -33 9 -47 7 -40 28 -90 10 -23 18 -46 17 -50 0 -4 -28 -13 -62 -20 -229
-46 -389 -180 -433 -360 -24 -100 -23 -171 4 -270 9 -37 8 -38 -40 -42 -280
-19 -472 -251 -465 -559 2 -98 5 -116 26 -181 17 -52 71 -165 81 -169 4 -2 8
-8 8 -14 0 -24 145 -204 236 -293 87 -85 177 -164 273 -242 24 -20 24 -20 -78
-7 -317 41 -593 145 -968 364 -75 44 -137 80 -138 80 -2 0 -64 36 -140 80 -76
44 -139 80 -141 80 -2 0 -33 18 -69 40 -36 22 -67 40 -69 40 -2 0 -42 22 -90
50 -48 27 -89 50 -92 50 -11 0 -333 160 -393 195 -36 21 -75 50 -87 64 -30 34
-119 194 -139 251 -19 53 -72 298 -81 379 -3 31 -8 65 -11 76 -19 86 -23 440
-10 806 12 332 31 440 105 602 16 34 19 37 47 30 45 -12 155 -8 200 7 98 31
206 94 375 221 339 254 851 562 1132 682 171 74 377 129 534 143 38 3 70 7 71
8 8 7 221 -3 288 -13z m-3038 -690 c73 -20 153 -86 146 -121 -1 -3 -4 -34 -8
-70 -4 -36 -8 -67 -10 -70 -2 -3 -6 -29 -10 -59 -4 -30 -8 -61 -10 -70 -1 -9
-6 -43 -10 -76 -3 -32 -8 -62 -10 -65 -2 -3 -6 -34 -10 -70 -4 -36 -8 -67 -10
-70 -2 -3 -6 -32 -9 -66 -4 -33 -9 -73 -12 -90 -7 -36 -10 -54 -19 -129 -4
-33 -15 -109 -26 -170 -15 -90 -17 -148 -14 -315 2 -113 6 -218 9 -235 2 -16
7 -59 11 -95 3 -36 8 -81 11 -100 41 -288 85 -451 179 -655 7 -16 24 -61 36
-99 22 -67 22 -69 4 -102 -16 -31 -53 -52 -105 -60 -119 -21 -457 -32 -581
-19 -93 9 -135 42 -188 151 -28 57 -113 295 -127 357 -35 152 -59 279 -74 402
-18 145 -20 159 -27 270 -15 221 -6 1005 12 1035 1 3 6 41 10 84 4 43 9 88 11
100 2 12 10 58 18 103 8 45 20 91 26 103 6 11 8 20 5 20 -9 0 36 83 59 108 52
58 122 73 341 74 93 0 190 3 215 7 58 8 118 5 167 -8z m5208 -186 c33 -4 78
-8 100 -10 99 -10 156 -14 230 -20 44 -3 94 -8 111 -10 17 -2 69 -7 115 -10
46 -3 104 -8 129 -10 74 -7 161 -14 235 -20 39 -3 90 -7 115 -10 25 -3 79 -8
120 -10 41 -3 100 -8 130 -10 30 -3 83 -7 118 -10 34 -3 90 -7 125 -10 34 -3
87 -8 117 -10 30 -2 87 -6 125 -10 39 -3 99 -8 135 -10 140 -11 197 -16 240
-20 124 -12 160 -16 220 -20 166 -11 209 -17 269 -36 172 -54 261 -136 277
-252 16 -113 -130 -241 -299 -262 -106 -13 -125 -16 -177 -20 -242 -21 -386
-24 -1327 -31 l-873 -7 -1 34 c-2 55 -12 116 -34 217 -20 89 -103 257 -199
405 -81 126 -96 155 -83 160 7 2 14 3 17 2 3 -2 32 -6 65 -10z m-1423 -606
c38 -20 61 -45 130 -139 87 -117 250 -280 343 -342 93 -61 213 -103 415 -144
85 -17 234 -22 311 -11 52 8 169 46 218 71 27 14 35 15 49 4 29 -23 36 -31 80
-99 75 -116 118 -253 109 -345 -13 -118 -124 -255 -247 -303 -105 -42 -175
-35 -420 39 -235 71 -410 149 -730 325 -58 31 -130 71 -160 87 -225 124 -362
231 -435 341 -72 108 -89 226 -48 319 23 51 115 148 166 175 79 41 167 50 219
22z m-434 -888 c35 -10 180 -87 247 -130 124 -79 762 -404 955 -486 116 -50
185 -107 252 -210 98 -151 84 -308 -38 -429 -125 -123 -275 -133 -522 -35 -85
34 -351 165 -412 204 -22 14 -42 25 -45 25 -22 0 -542 335 -583 377 -8 7 -30
26 -50 41 -132 99 -233 250 -234 350 -1 143 102 268 247 302 39 9 141 4 183
-9z m-551 -719 c12 -7 66 -53 120 -103 133 -124 280 -226 603 -419 298 -178
357 -220 440 -316 59 -69 82 -115 82 -168 0 -165 -226 -270 -477 -221 -225 45
-545 244 -801 500 -209 208 -302 360 -309 504 -3 68 7 98 52 150 72 85 206
118 290 73z"/>
</g>
</svg>
